<?xml version="1.0" standalone="no"?>
<!DOCTYPE svg PUBLIC "-//W3C//DTD SVG 20010904//EN"
 "http://www.w3.org/TR/2001/REC-SVG-20010904/DTD/svg10.dtd">
<svg version="1.0" xmlns="http://www.w3.org/2000/svg"
 width="74.000000pt" height="74.000000pt" viewBox="0 0 74.000000 74.000000"
 preserveAspectRatio="xMidYMid meet">
<metadata>
Created by potrace 1.14, written by Peter Selinger 2001-2017
</metadata>
<g transform="translate(0.000000,74.000000) scale(0.100000,-0.100000)"
fill="#000000" stroke="none">
<path d="M439 725 c-2 -2 -52 -5 -111 -6 -60 -2 -108 -7 -108 -12 0 -4 -8 -11
-17 -15 -46 -19 -105 -69 -134 -113 -17 -27 -35 -49 -41 -49 -5 0 -6 -4 -3
-10 3 -5 2 -10 -3 -10 -5 0 -10 -50 -11 -110 -3 -128 14 -197 60 -245 16 -17
29 -36 29 -41 0 -6 12 -17 27 -24 16 -8 37 -22 48 -31 33 -27 84 -38 188 -40
90 -1 102 1 160 29 123 61 197 178 197 313 0 35 4 59 11 59 6 0 9 12 7 28 -2
15 -9 27 -17 27 -8 0 -19 14 -24 30 -5 17 -19 42 -29 58 -11 15 -17 27 -14 27
6 0 -53 59 -60 59 -2 1 -11 6 -18 13 -10 10 -11 15 -2 21 7 6 5 7 -6 3 -25 -8
-79 13 -71 27 3 7 3 9 -1 5 -5 -4 -18 -3 -31 2 -13 5 -25 7 -26 5z m-69 -199
c0 -2 -13 -9 -30 -15 -16 -5 -30 -6 -30 -1 0 5 8 11 18 13 24 7 42 8 42 3z
m60 -10 c0 -2 -7 -6 -15 -10 -8 -3 -15 -1 -15 4 0 6 7 10 15 10 8 0 15 -2 15
-4z m40 -6 c0 -5 -2 -10 -4 -10 -3 0 -8 5 -11 10 -3 6 -1 10 4 10 6 0 11 -4
11 -10z m25 -30 c-3 -5 -22 -10 -41 -10 -19 0 -34 5 -34 10 0 6 18 10 41 10
24 0 38 -4 34 -10z m-168 -6 c-3 -3 -12 -4 -19 -1 -8 3 -5 6 6 6 11 1 17 -2
13 -5z m-57 -34 c0 -5 -2 -10 -4 -10 -3 0 -8 5 -11 10 -3 6 -1 10 4 10 6 0 11
-4 11 -10z m-55 -30 c3 -5 1 -10 -4 -10 -6 0 -11 5 -11 10 0 6 2 10 4 10 3 0
8 -4 11 -10z m300 0 c3 -6 -4 -10 -17 -10 -18 0 -20 2 -8 10 19 12 18 12 25 0z
m-179 -45 c3 -17 1 -24 -6 -20 -5 3 -10 18 -10 32 0 32 9 25 16 -12z m-112 6
c4 -5 -3 -7 -14 -4 -23 6 -26 13 -6 13 8 0 17 -4 20 -9z m36 -22 c0 -16 -4
-28 -9 -25 -8 5 -3 56 5 56 2 0 4 -14 4 -31z m152 9 c-6 -6 -15 -8 -19 -4 -4
4 -1 11 7 16 8 5 17 7 19 4 3 -2 -1 -10 -7 -16z m98 12 c0 -5 -5 -10 -11 -10
-5 0 -7 5 -4 10 3 6 8 10 11 10 2 0 4 -4 4 -10z m-293 -36 c-3 -3 -12 -4 -19
-1 -8 3 -5 6 6 6 11 1 17 -2 13 -5z m306 -1 c-7 -2 -21 -2 -30 0 -10 3 -4 5
12 5 17 0 24 -2 18 -5z m-294 -73 c4 0 11 4 17 10 6 6 11 0 12 -20 1 -17 -2
-30 -7 -30 -5 0 -17 -3 -25 -6 -12 -4 -15 -2 -10 9 3 8 1 18 -4 21 -6 3 -7 16
-4 29 5 18 7 19 10 5 2 -10 7 -18 11 -18z m281 6 c0 -2 -9 -6 -20 -9 -11 -3
-20 -1 -20 4 0 5 9 9 20 9 11 0 20 -2 20 -4z"/>
<path d="M720 584 c0 -8 5 -12 10 -9 6 4 8 11 5 16 -9 14 -15 11 -15 -7z"/>
<path d="M620 100 c0 -5 5 -10 10 -10 6 0 10 5 10 10 0 6 -4 10 -10 10 -5 0
-10 -4 -10 -10z"/>
</g>
</svg>
